<?xml version="1.0" encoding="utf-8"?>
<!-- Generator: Adobe Illustrator 21.0.2, SVG Export Plug-In . SVG Version: 6.00 Build 0)  -->
<svg version="1.1" id="Camada_1" xmlns="http://www.w3.org/2000/svg" xmlns:xlink="http://www.w3.org/1999/xlink" x="0px" y="0px"
	 viewBox="0 0 379 396" style="enable-background:new 0 0 379 396;" xml:space="preserve">
<style type="text/css">
	.st0{fill:#5A677D;}
	.st1{fill:#323333;}
	.st2{fill:#D3D4D5;}
	.st3{fill:#AEAFB2;}
	.st4{fill:#3C3C3C;}
	.st5{fill:#E7503B;}
	.st6{fill:#FFFFFF;}
</style>
<ellipse class="st0" cx="189.8" cy="336.1" rx="186.5" ry="52.3"/>
<g>
	<path id="capa" class="st1" d="M366.5,200c-12-15-64-43-177-42c-113-1-165,27-177,42s41.3,32.4,50,38c14,9,44,24,32,59s-27,36,6,45
		s65,13,89,13s56-4,89-13s18-10,6-45s18-50,32-59C325.2,232.4,378.5,215,366.5,200z"/>
	<g>
		<g>
			<g>
				<path id="rosto" class="st2" d="M327.5,113c-6.6-6.1-29.4,14-29.4,14c-2.7,1.7-5,4.9-6.7,9c-6.9-38.6-28.9-48.2-39.6-49
					c-14-1-29,12-37,20c-7.8,7.8-20.4,21.4-25.6,22c-5.2-0.6-17.8-14.2-25.6-22c-8-8-23-21-37-20c-10.6,0.8-32,10.1-39.3,46.9
					c-1.3-2.8-3.2-5.1-5.7-6.9c0,0-22.9-20.1-29.4-14c-2.2,2.1-2.6,7.1,0.4,17c10.3,33.8,16.2,57.9,25.4,69.5
					c0,14.1,4.3,30.2,13.5,45.5c8.9,14.8,20.7,26.2,33,33.3c-0.4,5.2-4.5,82.2,64.3,82.7h0.7c67.5-0.5,64.8-74.6,64.3-82.3
					c12.5-7,24.6-18.6,33.7-33.7s13.4-30.8,13.5-44.7c9.6-11.3,15.5-35.7,26.1-70.3C330.1,120.1,329.8,115.1,327.5,113z"/>
				<path id="sombra_rosto" class="st3" d="M298.1,127c-2.7,1.9-4.8,4.5-6.1,7.6l1.5,42.4c0,0,1,49-58,88c0,0,11.8,105.9-92,77.8
					c9.6,10.5,23.9,18,45.3,18.2h0.7c67.5-0.5,64.8-74.6,64.3-82.3c12.5-7,24.6-18.6,33.7-33.7s13.4-30.8,13.5-44.7
					c9.6-11.3,15.5-35.7,26.1-70.3c3-9.9,2.7-14.9,0.4-17C321,106.9,298.1,127,298.1,127z"/>
			</g>
			<g>
				<g>
					<path class="st4" d="M202.5,265.7c-3.9,4.4-9.4,6.7-12.9,6.7s-9-2.3-12.9-6.7c-5.4-6.1,4.6,11.5,12.3,13.1
						c0.2,0.1,0.4,0.1,0.6,0.1l0,0c0.2,0,0.4,0,0.6-0.1C197.9,277.3,207.9,259.6,202.5,265.7z"/>
					<g>
						<path class="st4" d="M232,291.5c-8.8,2.8-34.7,8-42.1,8.1c-7.5-0.1-33.3-5.4-42.1-8.1c-9.4-2.9,27.2,14.6,42,14.6h0.3
							C204.8,306,241.4,288.5,232,291.5z"/>
						<g>
							<path class="st4" d="M163.9,297.4c0,0,0.9,16.7,2.9,17.9c1.2,0.7,2.3-1.4,3.4-15C170.3,297.7,163.9,297.4,163.9,297.4z"/>
							<path class="st4" d="M215.5,297.4c0,0-0.9,16.7-2.9,17.9c-1.2,0.7-2.3-1.4-3.4-15C209.1,297.7,215.5,297.4,215.5,297.4z"/>
						</g>
					</g>
				</g>
				<g>
					<g>
						<path class="st3" d="M171.5,194c0,0,5,0,5,15s-2.1,60.3-4,36c-2-25-2-48-2-48L171.5,194z"/>
						<path class="st3" d="M207.5,195c0,0-5-1-5,14s2.1,60.3,4,36c2-25,2-48,2-48L207.5,195z"/>
					</g>
					<g>
						<path class="st5" d="M146.5,176c-33-20-42-25-41-17s11,41,33,46s35-1,37-6S146.5,176,146.5,176z"/>
						<path class="st5" d="M233.5,176c33-20,42-25,41-17s-11,41-33,46s-35-1-37-6S233.5,176,233.5,176z"/>
					</g>
				</g>
			</g>
			<g>
				<circle class="st6" cx="99.5" cy="138" r="8"/>
				
					<ellipse transform="matrix(0.5744 -0.8186 0.8186 0.5744 -40.2243 144.6574)" class="st6" cx="119" cy="111" rx="21" ry="10.5"/>
			</g>
		</g>
		<path id="cabelo" class="st4" d="M85.5,179c-6-75,27-91,41-92s29,12,37,20c7.8,7.8,20.4,21.4,25.6,22c5.2-0.6,17.8-14.2,25.6-22
			c8-8,23-21,37-20s47,17,41,92c-0.3,3.5-0.6,6.8-1,10.1c21-41.9,19.2-109.1,18.2-144.1c-1-37-73-50-120-50h-0.4
			c-47,0-119,13-120,50c-0.9,34.1-2.7,98.8,16.6,140.8C85.9,183.6,85.7,181.3,85.5,179z"/>
	</g>
</g>
</svg>
